# xmcd
# Track frame offsets:
# 150
# 12651
# 24883
# 37165
# 49632
# 64393
# 76458
# 86184
# 101275
# 112870
# 123484
# 137376
# 151184
# 167765
#
# Disc length: 2407 seconds
# Revision: 0
# Processed by: cddbd v1.5.1PL2 Copyright (c) Steve Scherf et al.
# Submitted via: VisiTrax 2.9.10.228 - For more info visit www.synapsa.com
#
DISCID=ac09650e
DTITLE=Bandit - Orbisongs
DYEAR=2005
DGENRE=Pop
TTITLE0=In Dreams
TTITLE1=Lana
TTITLE2=Blue Angel
TTITLE3=Claudette
TTITLE4=Roy's Medley
TTITLE5=Together Forever (remix)
TTITLE6=Running Scared
TTITLE7=Not Alone Anymore
TTITLE8=Dream Baby
TTITLE9=She's Gone
TTITLE10=Lonely And Blue
TTITLE11=Pretty Woman
TTITLE12=Every Time
TTITLE13=It's Over
EXTD=
EXTT0=
EXTT1=
EXTT2=
EXTT3=
EXTT4=
EXTT5=
EXTT6=
EXTT7=
EXTT8=
EXTT9=
EXTT10=
EXTT11=
EXTT12=
EXTT13=
PLAYORDER=
